<svg width="31" height="19" viewBox="0 0 31 19" fill="none" xmlns="http://www.w3.org/2000/svg">
<path d="M15.3286 4.76978C12.8222 4.76978 10.792 6.79999 10.792 9.30642C10.792 11.8128 12.8222 13.8431 15.3286 13.8431C17.8351 13.8431 19.8653 11.8128 19.8653 9.30642C19.859 6.79999 17.8288 4.76978 15.3286 4.76978ZM15.3286 7.82762C14.514 7.82762 13.8498 8.49183 13.8498 9.30642C13.8498 9.68238 13.5491 9.98315 13.1731 9.98315C12.7971 9.98315 12.4964 9.68238 12.4964 9.30642C12.4964 7.74616 13.7684 6.47415 15.3286 6.47415C15.7046 6.47415 16.0054 6.77492 16.0054 7.15089C16.0054 7.52685 15.6983 7.82762 15.3286 7.82762Z" fill="#395F82"/>
<path d="M30.1602 8.28516C16.0741 -7.91893 3.34141 4.90774 0.308623 8.46061C-0.0986727 8.93683 -0.104939 9.63863 0.302356 10.1149C14.2068 26.344 26.8329 14.1627 30.1602 10.3467C30.6803 9.75768 30.6803 8.88043 30.1602 8.28516ZM15.3284 15.7481C11.7693 15.7481 8.88689 12.8657 8.88689 9.30653C8.88689 5.74739 11.7693 2.865 15.3284 2.865C18.8876 2.865 21.7699 5.74739 21.7699 9.30653C21.7699 12.8657 18.8813 15.7481 15.3284 15.7481Z" fill="#395F82"/>
</svg>
