<svg width="1920" height="196" viewBox="0 0 1920 196" fill="none" xmlns="http://www.w3.org/2000/svg">
<path fill-rule="evenodd" clip-rule="evenodd" d="M0 0L40 24.6594C80 48.8937 160 98.2126 240 98.2126C320 98.2126 400 48.8937 480 53.1453C560 57.397 640 114.369 720 142.855C800 171.341 880 171.341 960 155.184C1040 139.028 1120 106.291 1200 89.7093C1280 73.5531 1360 73.5531 1440 57.397C1520 40.8156 1600 8.07809 1680 8.07809C1760 8.07809 1840 40.8156 1880 57.397L1920 73.5531V196H1880C1840 196 1760 196 1680 196C1600 196 1520 196 1440 196C1360 196 1280 196 1200 196C1120 196 1040 196 960 196C880 196 800 196 720 196C640 196 560 196 480 196C400 196 320 196 240 196C160 196 80 196 40 196H0V0Z" fill="white"/>
</svg>
