<svg width="195" height="140" viewBox="0 0 195 140" fill="none" xmlns="http://www.w3.org/2000/svg">
<g filter="url(#filter0_b_1_6)">
<path fill-rule="evenodd" clip-rule="evenodd" d="M35.6702 3.35283C23.0401 1.99893 11.7037 11.1401 10.3498 23.7703L5.03547 73.3461C3.68156 85.9763 12.8228 97.3126 25.453 98.6665L126.174 109.463L126.377 130.671C126.404 133.563 129.762 135.209 132.515 133.68L170.797 112.417C179.362 109.817 185.979 102.313 186.993 92.8513L192.307 43.2755C193.661 30.6453 184.52 19.309 171.89 17.9551L35.6702 3.35283Z" fill="#FF8E8D"/>
</g>
<path d="M47.0252 63.862C47.6715 63.9313 48.2479 63.7617 48.7543 63.3534C49.2607 62.945 49.549 62.4127 49.6194 61.7565L50.3117 55.2985L60.3044 56.3697L59.6121 62.8277C59.5418 63.4839 59.7108 64.0652 60.1192 64.5717C60.5275 65.0781 61.0548 65.3659 61.7011 65.4352C62.3474 65.5045 62.9287 65.3355 63.4451 64.9282C63.9515 64.5198 64.2399 63.9875 64.3102 63.3313L66.1984 45.7172C66.2677 45.0709 66.0981 44.4946 65.6898 43.9882C65.2726 43.4707 64.7408 43.1774 64.0945 43.1081C63.4482 43.0388 62.8713 43.2133 62.3638 43.6316C61.8574 44.04 61.5696 44.5673 61.5003 45.2136L60.808 51.6716L50.8153 50.6004L51.5076 44.1424C51.5768 43.4961 51.4073 42.9198 50.999 42.4134C50.5917 41.897 50.0649 41.6042 49.4186 41.5349C48.7623 41.4646 48.1805 41.6385 47.673 42.0568C47.1666 42.4652 46.8788 42.9925 46.8095 43.6388L44.9213 61.2529C44.851 61.9091 45.02 62.4904 45.4283 62.9969C45.8367 63.5033 46.369 63.7916 47.0252 63.862ZM85.7916 68.0176C86.4379 68.0869 87.0192 67.9179 87.5356 67.5106C88.042 67.1022 88.3304 66.57 88.4007 65.9137C88.47 65.2674 88.3005 64.6911 87.8921 64.1847C87.4738 63.6772 86.9415 63.3888 86.2952 63.3195L73.9609 61.9973L74.4022 57.8809L83.7983 58.8881C84.4446 58.9574 85.026 58.7884 85.5423 58.3811C86.0487 57.9728 86.3366 57.4455 86.4058 56.7992C86.4762 56.1429 86.3072 55.5616 85.8988 55.0552C85.4805 54.5477 84.9483 54.2593 84.302 54.1901L74.9058 53.1828L75.347 49.0664L87.6814 50.3886C88.3277 50.4579 88.909 50.2889 89.4254 49.8816C89.9318 49.4732 90.2196 48.9459 90.2889 48.2996C90.3582 47.6533 90.1886 47.077 89.7803 46.5706C89.3631 46.0531 88.8313 45.7598 88.185 45.6905L73.5091 44.1173C72.8528 44.047 72.271 44.2209 71.7635 44.6392C71.2571 45.0476 70.9693 45.5749 70.9 46.2212L69.0118 63.8353C68.9415 64.4915 69.1105 65.0729 69.5188 65.5793C69.9272 66.0857 70.4595 66.3741 71.1157 66.4444L85.7916 68.0176ZM94.0119 68.8988C93.3556 68.8284 92.8233 68.5401 92.415 68.0336C92.0066 67.5272 91.8376 66.9459 91.908 66.2897L93.7961 48.6756C93.8654 48.0293 94.1533 47.502 94.6597 47.0936C95.1672 46.6753 95.749 46.5013 96.4052 46.5717C97.0515 46.641 97.5783 46.9338 97.9856 47.4501C98.394 47.9566 98.5635 48.5329 98.4942 49.1792L96.8571 64.4517L106.253 65.4589C106.9 65.5282 107.432 65.8166 107.85 66.3241C108.258 66.8305 108.428 67.4068 108.359 68.0531C108.288 68.7094 108 69.2417 107.494 69.65C106.977 70.0573 106.396 70.2263 105.75 70.157L94.0119 68.8988ZM113.412 70.9784C112.756 70.9081 112.224 70.6197 111.816 70.1133C111.407 69.6069 111.238 69.0256 111.309 68.3693L113.197 50.7553C113.266 50.109 113.554 49.5816 114.06 49.1733C114.568 48.755 115.15 48.581 115.806 48.6514C116.452 48.7206 116.979 49.0135 117.386 49.5298C117.795 50.0362 117.964 50.6126 117.895 51.2589L116.258 66.5314L125.654 67.5386C126.3 67.6079 126.832 67.8963 127.251 68.4037C127.659 68.9101 127.829 69.4865 127.759 70.1328C127.689 70.789 127.401 71.3213 126.894 71.7297C126.378 72.137 125.796 72.306 125.15 72.2367L113.412 70.9784ZM148.103 63.4129C147.912 65.1927 147.118 66.6463 145.72 67.7737C144.312 68.9 142.718 69.3678 140.938 69.177C139.158 68.9862 137.705 68.1918 136.577 66.7936C135.45 65.3955 134.981 63.8065 135.172 62.0267C135.363 60.2469 136.157 58.7933 137.556 57.6659C138.955 56.5286 140.544 56.0553 142.324 56.2461C144.104 56.4369 145.562 57.2368 146.698 58.646C147.826 60.0441 148.294 61.6331 148.103 63.4129ZM130.474 61.5231C130.145 64.5955 130.952 67.3422 132.895 69.7631C134.849 72.1751 137.362 73.5457 140.434 73.8751C143.517 74.2055 146.263 73.3987 148.674 71.4546C151.096 69.5016 152.472 66.9889 152.801 63.9165C153.132 60.8342 152.32 58.087 150.366 55.675C148.423 53.2541 145.91 51.8784 142.828 51.548C139.755 51.2187 137.008 52.0305 134.586 53.9835C132.175 55.9276 130.805 58.4408 130.474 61.5231Z" fill="white"/>
<defs>
<filter id="filter0_b_1_6" x="-5.09741" y="-6.78015" width="207.538" height="151.043" filterUnits="userSpaceOnUse" color-interpolation-filters="sRGB">
<feFlood flood-opacity="0" result="BackgroundImageFix"/>
<feGaussianBlur in="BackgroundImageFix" stdDeviation="5"/>
<feComposite in2="SourceAlpha" operator="in" result="effect1_backgroundBlur_1_6"/>
<feBlend mode="normal" in="SourceGraphic" in2="effect1_backgroundBlur_1_6" result="shape"/>
</filter>
</defs>
</svg>
