<svg width="1100" height="197" viewBox="0 0 1100 197" fill="none" xmlns="http://www.w3.org/2000/svg">
<path fill-rule="evenodd" clip-rule="evenodd" d="M0 0.901367L25.7708 25.5608C51.5417 49.7951 103.083 99.114 154.625 99.114C206.167 99.114 257.708 49.7951 309.25 54.0467C360.792 58.2983 412.333 115.27 463.875 143.756C515.417 172.242 566.958 172.242 618.5 156.086C670.042 139.93 721.583 107.192 773.125 90.6107C824.667 74.4545 876.208 74.4545 927.75 58.2983C979.292 41.717 1030.83 8.97946 1082.38 8.97946C1133.92 8.97946 1185.46 41.717 1211.23 58.2983L1237 74.4545V196.901H1211.23C1185.46 196.901 1133.92 196.901 1082.38 196.901C1030.83 196.901 979.292 196.901 927.75 196.901C876.208 196.901 824.667 196.901 773.125 196.901C721.583 196.901 670.042 196.901 618.5 196.901C566.958 196.901 515.417 196.901 463.875 196.901C412.333 196.901 360.792 196.901 309.25 196.901C257.708 196.901 206.167 196.901 154.625 196.901C103.083 196.901 51.5417 196.901 25.7708 196.901H0V0.901367Z" fill="white"/>
</svg>
